<svg width="849" height="360" viewBox="0 0 849 360" fill="none" xmlns="http://www.w3.org/2000/svg">
<rect x="86" y="95" width="30" height="201" fill="#434343"/>
<rect x="302" y="52" width="5" height="250" fill="#434343"/>
<rect y="95" width="30" height="116" transform="rotate(-90 0 95)" fill="#434343"/>
<rect x="159" y="95" width="30" height="201" fill="#434343"/>
<path d="M21 43L49.1908 32.7394L250.5 311.5L21 43Z" fill="#8A1515"/>
<rect x="159" y="95" width="30" height="115" transform="rotate(-90 159 95)" fill="#434343"/>
<path d="M414.152 95.688H387.656V173H364.616V95.688H338.12V75.976H414.152V95.688ZM527.905 75.976V173H504.865V134.088H466.593V173H443.553V75.976H466.593V114.376H504.865V75.976H527.905ZM627.258 154.568V173H562.49V75.976H626.618V94.408H585.53V115.016H620.218V133.448H585.53V154.568H627.258ZM693.095 137.928H682.343V173H659.303V75.976H698.599C723.26 75.976 735.591 86.344 735.591 107.08C735.591 121.843 729.148 131.315 716.263 135.496L739.431 173H713.831L693.095 137.928ZM682.343 118.472H698.599C707.729 118.472 712.295 114.675 712.295 107.08C712.295 103.069 711.185 100.125 708.967 98.248C706.748 96.3707 703.292 95.432 698.599 95.432H682.343V118.472ZM833.008 154.568V173H768.24V75.976H832.368V94.408H791.28V115.016H825.968V133.448H791.28V154.568H833.008Z" fill="#434343"/>
<path d="M437.352 256.288V276H428.648C424.125 276 419.859 275.488 415.848 274.464C411.837 273.44 407.784 271.819 403.688 269.6C394.984 275.317 385.811 278.176 376.168 278.176C364.477 278.176 355.603 275.957 349.544 271.52C343.485 266.997 340.456 260.299 340.456 251.424C340.456 245.365 341.907 240.16 344.808 235.808C347.795 231.456 351.891 227.573 357.096 224.16C351.72 216.992 349.032 209.611 349.032 202.016C349.032 196.64 350.269 192.032 352.744 188.192C355.219 184.267 358.632 181.323 362.984 179.36C367.336 177.312 372.285 176.288 377.832 176.288C386.451 176.288 393.448 178.549 398.824 183.072C404.2 187.509 406.888 193.739 406.888 201.76C406.888 206.88 405.181 211.701 401.768 216.224C398.44 220.661 394.045 224.629 388.584 228.128C394.301 234.187 399.123 238.923 403.048 242.336C407.912 234.144 410.387 224.117 410.472 212.256H433.256C433.256 219.851 432.061 227.275 429.672 234.528C427.283 241.696 423.912 248.224 419.56 254.112C422.547 255.563 425.619 256.288 428.776 256.288H437.352ZM377.832 194.464C375.613 194.464 374.035 195.147 373.096 196.512C372.243 197.877 371.816 199.755 371.816 202.144C371.816 204.021 372.157 205.856 372.84 207.648C373.523 209.355 374.589 211.275 376.04 213.408C378.6 211.872 380.563 209.995 381.928 207.776C383.379 205.557 384.104 203.424 384.104 201.376C384.104 196.768 382.013 194.464 377.832 194.464ZM363.24 250.656C363.24 256.032 367.549 258.72 376.168 258.72C379.752 258.72 383.251 258.123 386.664 256.928C382.397 252.917 376.893 247.157 370.152 239.648C367.251 241.696 365.373 243.488 364.52 245.024C363.667 246.475 363.24 248.352 363.24 250.656ZM550.527 198.688H524.031V276H500.991V198.688H474.495V178.976H550.527V198.688ZM650.217 178.976V276H627.177V237.088H588.905V276H565.865V178.976H588.905V217.376H627.177V178.976H650.217ZM735.508 257.568V276H670.74V178.976H734.868V197.408H693.78V218.016H728.468V236.448H693.78V257.568H735.508ZM837.842 178.976V276H811.346L776.53 216.352V276H753.49V178.976H779.986L814.802 238.624V178.976H837.842Z" fill="#8A1515"/>
</svg>
